<?xml version="1.0" standalone="no"?>
<!DOCTYPE svg PUBLIC "-//W3C//DTD SVG 20010904//EN"
 "http://www.w3.org/TR/2001/REC-SVG-20010904/DTD/svg10.dtd">
<svg version="1.0" xmlns="http://www.w3.org/2000/svg"
 width="402.000000pt" height="402.000000pt" viewBox="0 0 402.000000 402.000000"
 preserveAspectRatio="xMidYMid meet">
<metadata>
Created by potrace 1.11, written by Peter Selinger 2001-2013
</metadata>
<g transform="translate(0.000000,402.000000) scale(0.100000,-0.100000)"
fill="#000000" stroke="none">
<path d="M1785 4013 c-724 -92 -1314 -569 -1550 -1252 -19 -58 -48 -161 -63
-230 -25 -118 -27 -142 -26 -371 0 -227 2 -254 26 -370 85 -398 284 -748 570
-1005 48 -44 66 -65 63 -80 -2 -11 -74 -173 -160 -359 -85 -187 -153 -341
-151 -344 3 -2 186 91 408 208 l403 211 115 -36 c395 -124 790 -122 1175 6
890 295 1422 1218 1234 2143 -156 768 -784 1361 -1559 1471 -96 13 -403 19
-485 8z m511 -677 c95 -20 192 -56 261 -97 75 -44 211 -180 246 -246 61 -114
82 -272 52 -388 -36 -136 -119 -241 -329 -414 -202 -167 -236 -212 -257 -340
l-12 -71 -289 0 -289 0 6 83 c20 260 59 323 363 585 189 162 220 212 193 312
-24 88 -80 124 -196 124 -70 1 -87 -3 -134 -29 -80 -44 -123 -120 -146 -258
-5 -29 -10 -37 -23 -33 -9 2 -142 19 -294 37 l-278 33 7 41 c59 392 294 620
693 675 92 12 342 5 426 -14z m-16 -2001 l0 -275 -310 0 -310 0 0 275 0 275
310 0 310 0 0 -275z"/>
</g>
</svg>
